<svg width="38" height="37" viewBox="0 0 38 37" fill="none" xmlns="http://www.w3.org/2000/svg">
<path d="M18.7242 36.8753C28.8797 36.8753 37.1124 28.7619 37.1124 18.7536C37.1124 8.74521 28.8797 0.631836 18.7242 0.631836C8.56863 0.631836 0.335938 8.74521 0.335938 18.7536C0.335938 28.7619 8.56863 36.8753 18.7242 36.8753Z" fill="#ECB13A"/>
<path d="M18.2076 35.0702C27.8276 35.0702 35.6261 27.3847 35.6261 17.9041C35.6261 8.42356 27.8276 0.738037 18.2076 0.738037C8.58761 0.738037 0.789061 8.42356 0.789061 17.9041C0.789061 27.3847 8.58761 35.0702 18.2076 35.0702Z" fill="#FFDE4F"/>
<path d="M10.6369 14.669C12.0016 14.669 13.1079 13.5788 13.1079 12.2339C13.1079 10.8891 12.0016 9.79883 10.6369 9.79883C9.27229 9.79883 8.16602 10.8891 8.16602 12.2339C8.16602 13.5788 9.27229 14.669 10.6369 14.669Z" fill="#645033"/>
<path d="M26.5744 14.6976C27.9391 14.6976 29.0454 13.6074 29.0454 12.2625C29.0454 10.9176 27.9391 9.82739 26.5744 9.82739C25.2098 9.82739 24.1035 10.9176 24.1035 12.2625C24.1035 13.6074 25.2098 14.6976 26.5744 14.6976Z" fill="#645033"/>
<path d="M25.5 25L12 25" stroke="#645033" stroke-width="2" stroke-linecap="round"/>
</svg>
